<svg preserveAspectRatio="none" width="100%" height="100%" overflow="visible" style="display: block;" viewBox="0 0 129 50" fill="none" xmlns="http://www.w3.org/2000/svg">
<g id="Logo b" clip-path="url(#clip0_0_133)">
<g id="logo Text">
<g id="Union">
<path d="M47.4744 39.3932V49.2293H49.3273V45.0797H51.7979V49.2293H53.6509V39.3932H51.7979V43.0817H49.3273V39.3932H47.4744Z" fill="var(--fill-0, #292E97)"/>
<path fill-rule="evenodd" clip-rule="evenodd" d="M55.3686 39.3932L54.6391 49.2293H56.4971L56.6795 46.7702H59.198L59.3803 49.2293H61.2383L60.5089 39.3932H55.3686ZM59.0498 44.7723L58.7877 41.2375H57.0898L56.8276 44.7723H59.0498Z" fill="var(--fill-0, #292E97)"/>
<path fill-rule="evenodd" clip-rule="evenodd" d="M88.7218 39.3932H93.8622L94.5916 49.2293H92.7336L92.5512 46.7702H90.0327L89.8504 49.2293H87.9924L88.7218 39.3932ZM92.1409 41.2375L92.4031 44.7723H90.1809L90.443 41.2375H92.1409Z" fill="var(--fill-0, #292E97)"/>
<path d="M87.6244 39.3932H85.5695L83.7927 43.0817H82.6805V39.3932H80.8276V49.2293H82.6805V45.0797H83.7221L85.7488 49.2293H87.8091L85.3307 44.1548L87.6244 39.3932Z" fill="var(--fill-0, #292E97)"/>
<path d="M73.4775 39.3932V49.2293H75.3305V49.1678H79.5923V47.3235H75.3305V44.9875H77.3687V43.1432H75.3305V41.2989H79.5923V39.4547H75.3305V39.3932H73.4775Z" fill="var(--fill-0, #292E97)"/>
<path fill-rule="evenodd" clip-rule="evenodd" d="M67.4245 49.1678H71.8716V45.7136L70.7646 44.3112L71.8716 42.9088V39.4547L67.4245 39.4547V39.3932H65.5716V49.2293H67.4245V49.1678ZM67.4245 43.3891V41.2989H70.0187V42.271L69.136 43.3891H67.4245ZM69.136 45.2334H67.4245V47.3235H70.0187V46.3515L69.136 45.2334Z" fill="var(--fill-0, #292E97)"/>
</g>
<g id="Union_2">
<path d="M116.418 20.3926H113.13L110.287 26.2942H108.508V20.3926H105.543V36.1303H108.508V29.491H110.174L113.417 36.1303H116.713L112.748 28.0111L116.418 20.3926Z" fill="var(--fill-0, #00A8F0)"/>
<path d="M117.896 20.3926V36.1303H122.26L125.578 30.6955V36.1303H128.543V20.3926H125.578V25.6187L121.723 31.9528H120.861V20.3926H117.896Z" fill="var(--fill-0, #00A8F0)"/>
<path fill-rule="evenodd" clip-rule="evenodd" d="M59.1109 20.3932H68.9934V36.1309H59.1109V20.3932ZM62.0757 23.344H66.0286V33.1801H62.0757V23.344Z" fill="var(--fill-0, #00A8F0)"/>
<path d="M47.092 20.3932V36.1309H50.0568V23.5899H54.0097V36.1309H56.9745V20.3932H47.092Z" fill="var(--fill-0, #00A8F0)"/>
<path d="M101.129 36.1309H104.101L102.186 20.3932L95.3072 20.3932L93.0771 36.1309H96.0499L98.0612 23.344L99.4323 23.344L101.129 36.1309Z" fill="var(--fill-0, #00A8F0)"/>
<path fill-rule="evenodd" clip-rule="evenodd" d="M81.7039 20.3932H91.5863V36.1309H81.7039V20.3932ZM84.6686 23.344H88.6216V33.1801H84.6686V23.344Z" fill="var(--fill-0, #00A8F0)"/>
<path d="M80.2129 23.5898H76.8877V36.1309H73.919V23.5898H70.4841V20.3926H80.2129V23.5898Z" fill="var(--fill-0, #00A8F0)"/>
</g>
</g>
<path id="Union_3" fill-rule="evenodd" clip-rule="evenodd" d="M38.1143 49.667H0V10.9932L38.1143 10.9932V49.667ZM6 43.667H32.1143V16.9932H6V43.667Z" fill="var(--fill-0, #00A8F0)"/>
<path id="Subtract" d="M45.5361 17.0107H38.1592L46.8135 6H0.652344L4.79785 0H58.9648L45.5361 17.0107Z" fill="var(--fill-0, #292E97)"/>
</g>
<defs>
<clipPath id="clip0_0_133">
<rect width="129" height="50" fill="white"/>
</clipPath>
</defs>
</svg>
